# xmcd
#
# Track frame offsets:
#	150
#	26151
#	53070
#	72159
#	94407
#	117735
#	147732
#	171789
#	195927
#
# Disc length: 2981 seconds
#
# Revision: 1
# Processed by: cddbd v1.4PL0 Copyright (c) Steve Scherf et al.
# Submitted via: audiograbber 1.82.01
#
DISCID=860ba309
DTITLE=Julia - Chi Gharib
DYEAR=1900
DGENRE=
TTITLE0=Chi Gharib
TTITLE1=El Bahr El Hadi
TTITLE2=Ala Zaouak
TTITLE3=Ou3a Tkoun Nsit
TTITLE4=W Byimrok Ayyam
TTITLE5=Tofli Ellli Jayi
TTITLE6=El Amal El Jayi
TTITLE7=Dubai Laou Tasalina El Bawha
TTITLE8=Ya Ayyouha El Kibar
EXTD=
EXTT0=
EXTT1=
EXTT2=
EXTT3=
EXTT4=
EXTT5=
EXTT6=
EXTT7=
EXTT8=
PLAYORDER=
